<svg width="34" height="34" viewBox="0 0 34 34" fill="none" xmlns="http://www.w3.org/2000/svg">
<path d="M13.601 20.3949L24.6921 9.30786M13.9163 20.8934L16.4312 25.9234C17.039 27.1388 17.3428 27.7466 17.7256 27.9096C18.0579 28.051 18.4376 28.0254 18.7479 27.8407C19.1054 27.6278 19.3249 26.9847 19.7641 25.6986L24.5159 11.7826C24.8986 10.662 25.0899 10.1017 24.9589 9.73108C24.845 9.40864 24.5914 9.155 24.269 9.04108C23.8983 8.91013 23.338 9.10145 22.2174 9.48409L8.30131 14.2359C7.01524 14.6751 6.3722 14.8946 6.15933 15.2521C5.97459 15.5624 5.94899 15.9421 6.09042 16.2743C6.2534 16.6571 6.86116 16.9611 8.07667 17.5688L13.1065 20.0838C13.3069 20.1839 13.407 20.2339 13.4937 20.3008C13.5708 20.3602 13.6398 20.4293 13.6991 20.5062C13.7661 20.593 13.8161 20.6932 13.9163 20.8934Z" stroke="black" strokeWidth="2" strokeLinecap="round" strokeLinejoin="round"/>
<path d="M17 1C25.8 1 33 8.1 33 16.9999C33 25.7999 25.8 32.9999 17 32.9999C8.2 32.9999 1 25.7999 1 16.9999C1 8.1 8.2 1 17 1Z" stroke="#606CCF" strokeWidth="2" strokeMiterlimit="100"/>
</svg>
