<svg width="34" height="35" viewBox="0 0 34 35" fill="none" xmlns="http://www.w3.org/2000/svg">
<path d="M17 1.80005C25.8 1.80005 33 8.90005 33 17.8C33 26.6 25.8 33.8 17 33.8C8.2 33.8 1 26.6 1 17.8C1 8.90005 8.2 1.80005 17 1.80005Z" stroke="#79A6DA" strokeWidth="2" stroke-miterlimit="100"/>
<path d="M20.7998 20.2C19.9998 20.2 19.3002 20.5 18.7002 20.9L15.2002 18.7C15.3335 18.2333 15.3335 17.7667 15.2002 17.3L18.7002 15.1C19.3002 15.5 19.9998 15.8 20.7998 15.8C22.6998 15.8 24.1001 14.3 24.1001 12.5C24.1001 10.6 22.6998 9.09998 20.7998 9.09998C18.9998 9.09998 17.5 10.6 17.5 12.5C17.5 12.7 17.5334 12.9333 17.6001 13.2L14 15.4C13.5 14.9 12.7 14.7 12 14.7C10.1 14.7 8.6001 16.2 8.6001 18C8.6001 19.8 10.1 21.3 12 21.3C12.7 21.3 13.5 21 14 20.6L17.6001 22.8C17.5334 23.0667 17.5 23.3 17.5 23.5C17.5 25.4 18.9998 26.9 20.7998 26.9C22.6998 26.9 24.1001 25.4 24.1001 23.5C24.1001 21.7 22.6998 20.2 20.7998 20.2Z" stroke="#79A6DA" strokeWidth="2" stroke-miterlimit="100"/>
</svg>
